# xmcd
#
# Track frame offsets:
# 150
# 13932
# 28449
# 41687
# 53983
# 66705
# 70569
# 81180
# 93706
# 109184
# 113711
# 131048
# 142867
# 144812
# 164717
# 175722
# 190956
#
# Disc length: 2785 seconds
#
#
# Revision: 0
# Processed by: cddbd v1.5.2PL0 Copyright (c) Steve Scherf et al.
# Submitted via: FreeRIP 2.96 
#
DISCID=fc0adf11
DTITLE=Max Raabe und das Palast-Orchester - Heute Nacht oder nie CD2
DYEAR=2007
DGENRE=Cabaret
TTITLE0=Song of Mandalay
TTITLE1=Moon of Alabama
TTITLE2=Tango-Ballade
TTITLE3=Just one of those things
TTITLE4=Am Amazonas
TTITLE5=Ansage
TTITLE6=Mein kleiner gruener Kaktus
TTITLE7=Love thx neighbour
TTITLE8=Liebesleid
TTITLE9=Ansage
TTITLE10=Dein ist mein ganzes Herz
TTITLE11=Over my shoulder
TTITLE12=Ansage
TTITLE13=Dort tanzt Lu-lu
TTITLE14=Cosi-cosa
TTITLE15=Dream a little dream
TTITLE16=Gib mir den letzten Abschiedskuss
EXTD=Live in New York\nDas Carnegie Hall Konzert
EXTT0=
EXTT1=
EXTT2=
EXTT3=
EXTT4=
EXTT5=
EXTT6=
EXTT7=
EXTT8=
EXTT9=
EXTT10=
EXTT11=
EXTT12=
EXTT13=
EXTT14=
EXTT15=
EXTT16=
PLAYORDER=
